<svg width="368" height="98" viewBox="0 0 368 98" fill="none" xmlns="http://www.w3.org/2000/svg">
<rect width="368" height="98" fill="white"/>
<path d="M116.73 70.2422V64.2656C122.004 66.1406 127.699 67.0781 133.816 67.0781C142.465 67.0781 146.789 63.9141 146.789 57.5859C146.789 52.1953 143.602 49.5 137.227 49.5H130.758C120.234 49.5 114.973 44.9297 114.973 35.7891C114.973 26.1797 121.711 21.375 135.188 21.375C141.047 21.375 146.496 22.0781 151.535 23.4844V29.4609C146.496 27.5859 141.047 26.6484 135.188 26.6484C126.047 26.6484 121.477 29.6953 121.477 35.7891C121.477 41.1797 124.57 43.875 130.758 43.875H137.227C147.938 43.875 153.293 48.4453 153.293 57.5859C153.293 67.4297 146.801 72.3516 133.816 72.3516C127.699 72.3516 122.004 71.6484 116.73 70.2422ZM157.688 35.0859H164.754L175.195 63.9141L185.988 35.0859H192.879L177.551 73.0898C174.832 79.793 170.754 83.9766 165.316 85.6406L162.82 81.0352C166.945 79.2305 169.945 76.2891 171.82 72.2109L157.688 35.0859ZM198.645 70.2422V64.6172C202.98 66.0234 207.363 66.7266 211.793 66.7266C217.676 66.7266 220.617 64.9688 220.617 61.4531C220.617 58.1719 218.566 56.5312 214.465 56.5312H209.191C201.223 56.5312 197.238 52.8984 197.238 45.6328C197.238 38.6016 202.359 35.0859 212.602 35.0859C217.008 35.0859 221.379 35.6719 225.715 36.8438V42.4688C221.379 41.0625 217.008 40.3594 212.602 40.3594C206.461 40.3594 203.391 42.1172 203.391 45.6328C203.391 48.9141 205.324 50.5547 209.191 50.5547H214.465C222.902 50.5547 227.121 54.1875 227.121 61.4531C227.121 68.4844 222.012 72 211.793 72C207.363 72 202.98 71.4141 198.645 70.2422ZM236.613 72V21.7266H244.875L263.332 63.668L281.438 21.7266H289.348V72H283.547V30.7617L265.688 72H260.555L242.414 30.7617V72H236.613ZM315.82 35.0859C326.32 35.0859 331.57 40.2773 331.57 50.6602C331.57 52.1367 331.465 53.7188 331.254 55.4062H305.344C305.344 62.9531 309.75 66.7266 318.562 66.7266C322.758 66.7266 326.484 66.2578 329.742 65.3203V70.5938C326.484 71.5312 322.523 72 317.859 72C305.18 72 298.84 65.707 298.84 53.1211C298.84 41.0977 304.5 35.0859 315.82 35.0859ZM305.344 49.9922H325.312C325.172 43.5234 322.008 40.2891 315.82 40.2891C309.258 40.2891 305.766 43.5234 305.344 49.9922ZM347.531 35.0859V72H341.027V35.0859H347.531ZM347.531 21.7266V27.8789H341.027V21.7266H347.531Z" fill="#673AB7"/>
<rect x="3" y="3" width="102" height="92" fill="#673AB7"/>
<g clip-path="url(#clip0)">
<path d="M54.7165 82C32.0659 82 17.5161 74.4992 14.8101 58.3008L14.4606 56.2083L37.5668 54.6241L38.0351 56.4679C39.8758 63.7148 45.0775 66.9466 54.9004 66.9466C60.418 66.9466 69.7558 65.5381 69.7558 60.2588C69.7558 58.4048 68.6685 56.9827 63.2599 55.6254C51.5455 52.7697 30.1637 51.6376 21.6069 41.6136C19.2407 38.8417 18.0407 35.567 18.0407 31.8805C18.0409 21.5457 29.3488 12 53.6738 12C79.0872 12 90.372 21.3759 90.9612 33.3212L91.0617 35.3573L67.6444 36.0825L67.221 34.3089C65.9038 28.7922 62.3106 26.837 53.4896 26.837C49.179 26.837 41.0267 27.7104 41.0267 31.0155C41.0267 36.3867 63.7958 36.3927 78.4759 41.8415C88.3311 45.5039 93.5395 51.8575 93.5395 60.2159C93.5395 71.7029 81.7594 82 54.7165 82V82ZM20.8273 59.8915C23.8663 72.003 34.9808 77.8984 54.7165 77.8984C65.8662 77.8984 74.7912 75.9808 80.5268 72.3527C86.6325 68.4905 87.9143 63.6209 87.9143 60.2158C87.9143 53.4055 83.8797 48.4532 75.9227 45.4961C65.464 41.6141 51.0278 40.8496 42.7069 38.005C37.8595 36.3478 35.4017 33.9963 35.4017 31.0154C35.4017 24.9161 44.9766 22.7353 53.4896 22.7353C64.0753 22.7353 69.9525 25.5589 72.235 31.835L85.113 31.4362C83.3539 21.5259 72.3047 16.1016 53.6738 16.1016C31.5248 16.1016 23.6659 24.6016 23.6659 31.8807C23.6659 47.4545 50.0861 48.0864 65.0563 51.7388L65.0781 51.7443C67.8958 52.4506 75.3808 54.3268 75.3808 60.2591C75.3808 67.6657 65.143 71.0484 54.9004 71.0484C43.2295 71.0484 35.8738 67.0405 33.0581 59.0531L20.8273 59.8915Z" fill="white"/>
</g>
<defs>
<clipPath id="clip0">
<rect width="96" height="70" fill="white" transform="translate(6 12)"/>
</clipPath>
</defs>
</svg>
